<svg xmlns="http://www.w3.org/2000/svg" viewBox="0 0 23.46 23.34"><defs><style>.cls-1{fill:#fff;}</style></defs><title>gear-icon</title><g id="Layer_2" data-name="Layer 2"><g id="Layer_1-2" data-name="Layer 1"><path class="cls-1" d="M21.76,12.73l1.7-.67V12h0l-.13-1.37-.12-1.34h0V9.12l-1.81-.34L21,7.93l-.55-1.3,1-1.54L19.58,3l-1.66.76L15.84,2.46,15.72.63,13,0l-.9,1.59-.32,0h0l-.94.09-.93.08h0l-.33,0L8.36.43,5.77,1.56,6,3.38,4.17,5,2.4,4.55,1,7,2.22,8.33l-.3,1.38-.21.9L0,11.29v.1H0l.13,1.33.12,1.38h0v.11l1.79.34.59,1.36.34.79L2,18.25l1.86,2.14,1.66-.76,2.09,1.25.11,1.83,2.76.63.9-1.59.35,0h0l.92-.09.92-.08h0l.35,0,1.17,1.4,2.6-1.13L17.46,20l1.82-1.61,1.78.44,1.43-2.45L21.24,15l.19-.84ZM13,18.25l-.19,0-.11,0-.16,0h-.74A6.72,6.72,0,0,1,5.87,14.9h0a6.7,6.7,0,0,1,4.67-9.82l.15,0,.13,0L11,5l.14,0h.58a6.69,6.69,0,0,1,6.2,4.07,6.62,6.62,0,0,1,.19,4.71h0A6.71,6.71,0,0,1,13,18.25Z"/></g></g></svg>