<svg xmlns="http://www.w3.org/2000/svg" viewBox="0 0 23.36 23.36"><defs><style>.cls-1{fill:#fff;}.cls-2{fill:#0f1031;}</style></defs><title>info-icon</title><g id="Layer_2" data-name="Layer 2"><g id="Layer_1-2" data-name="Layer 1"><circle class="cls-1" cx="11.68" cy="11.68" r="11.68"/><path class="cls-2" d="M12.82,18.05c.2.24.27.42.23.55-.12.32-.76.79-1.92,1.42-1.56.86-2.81,1.12-3.76.77-.68-.25-.87-.8-.56-1.65.13-.36.67-1.41,1.63-3.15l1.85-3.37.48-.86.37-.68a6.1,6.1,0,0,0,.36-.75c.16-.44.1-.7-.16-.8-.73-.27-1.79.19-3.18,1.39a.66.66,0,0,1-.11-.55c.2-.53,1-1.06,2.38-1.57a4.82,4.82,0,0,1,3-.43c.71.26.9.84.56,1.75a9.89,9.89,0,0,1-.5,1l-.45.83c0,.07-.22.4-.54,1l-1.95,3.54-.45.79a14.18,14.18,0,0,0-.79,1.6c-.14.38-.09.61.14.69C10.27,19.91,11.38,19.39,12.82,18.05Z"/><circle class="cls-2" cx="14.59" cy="5.07" r="1.85"/></g></g></svg>