<svg xmlns="http://www.w3.org/2000/svg" viewBox="0 0 439.21 180.78"><defs><style>.cls-1{fill:#0f1031;}.cls-2{fill:#fdb618;}</style></defs><title>logo-blue</title><g id="Layer_2" data-name="Layer 2"><g id="Layer_1-2" data-name="Layer 1"><path class="cls-1" d="M40.27,59.66c3,0,5.85,0,8.72.12a17.24,17.24,0,0,1,1.67-2.27,3.74,3.74,0,0,1,2.63-1.31c2.39,0,7.53,2.27,10.64,4.42,22.34,1.79,38.47,6.81,39.79,16.61,1.07,7.64-8.37,19.12-29.76,27.24a113.69,113.69,0,0,1-14,4.06c7.65,25.57,25.45,62.26,33.94,62-2,3.46-15.54,11.95-19.72,9.92-5.49-4.07-20.55-46.25-25.09-69.31l-8.6,1.44c-7.65,17.56-18,46.36-18,53.29,0,1.19.24,1.91.72,2.15-5.14,0-15.53-7.53-15.53-10.4,0-6.21,10-32.38,14.69-43.61-1.55-1.08-5-5.38-3.34-7,.84-.12,5.38.12,6.09,0,6.57-14.58,13.5-29.87,19.72-40.51C23.54,67.31,5,70.06.24,71.61c-.12,0-.24-.24-.24-.48,0-2,3.82-8.84,5.62-9.44A275.88,275.88,0,0,1,40.27,59.66Zm23.42,6.57C55.92,77,50.66,90,43.85,104.83c5.62-.6,11.35-1.55,16.49-3.7,15.42-6.34,24.74-17.81,23.78-25.22C83.16,68.86,73.25,66.71,63.69,66.23Z"/><path class="cls-1" d="M101.66,150.59c0,3.17,1.58,5,3.62,5,7.35,0,27-10.18,42.4-29.85,1.25.11.57,3.05.23,3.84-6.11,13-31.44,34.27-42.18,34.27-9.39,0-19.11-8.71-19.11-16,0-18.2,21.37-52.13,38.45-52.13,9.49,0,18.77,7,18.77,16.06,0,8.14-18.77,20.13-29.74,22.61a31.28,31.28,0,0,1-8.6.57C103.13,140.76,101.66,146.3,101.66,150.59Zm28.49-47.49c-5.54,0-15.83,13.46-22.27,26.69a17.44,17.44,0,0,0,6.9-1.59c5.54-2.48,15-10.74,17.3-20.46C132.75,104.8,132,103.1,130.15,103.1Z"/><path class="cls-1" d="M176.74,152.86a14.68,14.68,0,0,1-.22-2.94A214.1,214.1,0,0,1,180.14,117c-9.95,14.81-23.64,44.89-24.54,46.25-4.64,0-13.46-6-14.59-9.39a10.75,10.75,0,0,1-.23-2.48c.46-9.84,8.6-42.41,12.56-51.45,1.24-2.38,15.15,1.69,14.81,4.86-1.7,1.92-12,35.28-12.67,44.78,6.9-13.35,22.62-39.69,27.14-45.12,1.7-2.49,13.8,2,13.91,4.86-1.47,2-5.09,36.19-4.63,42.41,2.6-6.79,26.46-53.83,30.64-56.54,1.58-1.25,7.92.79,9.16,2.48-4.75,2.94-16.17,22-25.1,38.45-7.47,13.68-13.8,26-13.91,27.14C187.83,163.26,177.31,156.14,176.74,152.86Z"/><path class="cls-1" d="M265.29,107.06a38.23,38.23,0,0,1,4.63-7.35,3.19,3.19,0,0,1,1.81-1c4.07-.11,11.31,4.41,11.54,5.77-1.36.79-4.07,5.88-5.66,9.16a273.3,273.3,0,0,0-11.08,27c-3.28,9.39-6,17.64-6.11,22.17a7.49,7.49,0,0,0,.34,2.49c-5.08-.91-13.79-6.68-13.79-9.73s4.63-16.28,6.56-21c-10.18,15.49-20,29.51-22.51,29.51-8.14,0-18.65-7.46-18.65-13.57,0-10.06,8.48-28.95,17.86-41.5,5.43-7.24,11.65-12.32,16.29-12.32C253.75,96.66,262.23,99.48,265.29,107.06Zm-36.87,49.08c4,0,23.64-27.82,33.47-44.56-1.13-3.39-2.82-6.78-6.55-6.78-10.07,0-28.61,36.18-28.27,49.41C227.07,155.23,227.63,156.14,228.42,156.14Z"/><path class="cls-1" d="M319.45,123.91c-.45-2.49,1.81-15.83,3.06-21.37a146.5,146.5,0,0,0-28.27,36.07c-2.94,5.31-9.16,18-9.16,22.95a7,7,0,0,0,.22,1.7c-5.09-.9-12.89-6.67-12.89-9.73,0-5.08,13.12-42.29,21.6-54a2.2,2.2,0,0,1,1.92-.79c4.07,0,11.42,4.41,11.31,5.43-1.7.23-7.8,12.89-13.12,26.35,6.11-13.12,24.54-34.94,29.07-34.94,6.21,0,14.36,5.88,14.81,8.36-.45.91-4,5.54-7.35,10.29-3.62,5.09-7.24,11-7.8,11.54C321.94,125.94,319.57,124.7,319.45,123.91Z"/><path class="cls-1" d="M357.34,155.8c0-2.94,4.07-15.5,6.33-21.26-10.18,15.49-20,29.51-22.5,29.51-8.15,0-18.66-7.46-18.66-13.57,0-10.06,8.48-28.95,17.86-41.5,5.43-7.24,11.65-12.32,16.29-12.32,7.12,0,15.49,2.71,18.66,10.06,3.28-7.46,7.12-15.38,9.38-19.9,2.38-4.75,5.32-10.29,7-12.1a3.08,3.08,0,0,1,1.93-1.13c4.07-.12,10.85,4.29,11.08,5.31-1.36.79-4,5.88-5.66,9.16-3.95,7.69-18.09,39.69-22.84,54.62-3.62,11.53-6.56,19.22-5.09,22.62C365.93,164.39,357.34,158.85,357.34,155.8Zm-18.77.34c3.95,0,23.63-27.82,33.47-44.56-1.13-3.39-2.83-6.78-6.56-6.78-10.07,0-28.61,36.18-28.27,49.41C337.21,155.23,337.77,156.14,338.57,156.14Z"/><path class="cls-1" d="M399.74,115.88c0-11.31,10.86-20.47,21.83-20.69,7.35-.23,16.17,4.86,17.64,12.1-.23,4.63-11.2,13-12.22,13.11s-1.47-.22-1.47-1c.23-2.71,1-9.15.12-13.23s-2.94-5.88-6.22-5.88c-4.3,0-5.88,3.06-5.77,6.79.34,11.65,14.93,34,15.61,39.46a10.34,10.34,0,0,1,.22,1.93c0,10.74-16.17,15.83-25.55,16.05-12.33.34-26-4.75-26.24-14.36-.22-8.7,17.08-21.37,24.54-24.76A25.71,25.71,0,0,1,399.74,115.88ZM401.66,159c2.83,0,11.2-1.35,11.09-6.78-.34-6.45-5.43-15.49-9.16-23.75-8.82,7-13.46,13.68-13.68,19.9C389.68,155,394.88,159,401.66,159Z"/><path class="cls-2" d="M85.33,18.34a4.64,4.64,0,0,1,1.77,3.44c0,3.52-5,6.38-11.17,6.38-.48,0-1,0-1.43-.05A14,14,0,0,1,67.38,26a7.43,7.43,0,0,1-1.47-1.29,4.42,4.42,0,0,1-1.18-2.9c0-3,3.49-5.5,8.17-6.16l.47-.07L58.84,0,44.32,15.56l.84.13c4.49.73,7.8,3.19,7.8,6.1a4.42,4.42,0,0,1-1.18,2.9A7.43,7.43,0,0,1,50.31,26a13.91,13.91,0,0,1-7,2.12c-.5,0-1,.06-1.5.06-6.17,0-11.17-2.86-11.17-6.38a4.63,4.63,0,0,1,1.73-3.41l0,0H6L24.73,43.77a77.17,77.17,0,0,1,68.23,0l21.32-25.43ZM19.54,24.59c0,2.87,5,13.78,5,13.78L11.41,20.85H25.84S19.54,21.26,19.54,24.59ZM50.62,13.32,58.84,4.6l8.23,8.72-8.23,5Zm8.53,17.5h-.61a72.56,72.56,0,0,0-11.47,1.3l11.77-8.88,11.78,8.88A72.74,72.74,0,0,0,59.15,30.82Zm32.7-10h17L95.72,38.37s7.55-10.91,7.55-13.78C103.27,21.26,91.85,20.85,91.85,20.85ZM23.54,52.43l-.16-4.24a76.78,76.78,0,0,1,35.46-8.62c12.79,0,27.41,3.11,38,8.62L89,52.43c-1.53-.77-3.09-1.5-4.68-2.17-8.88-3.76-15.77-5.67-25.51-5.67S37.1,46.5,28.21,50.26C26.62,50.93,25.07,51.66,23.54,52.43Z"/><path class="cls-1" d="M156.86,18.32l9,9,0,26.17-8.08,8.08,11.92,24.85h-15.2L143.94,62.27h-5.47l.05,24.18H124.69l0-68.13ZM138.47,49.87h10.64l3-2.9V33.57l-2.89-2.9H138.47Z"/><path class="cls-1" d="M213,18.32l9.12,9v50L213,86.45h-23l-9.07-9.08v-50l9.07-9.07ZM205.81,74l2.52-2.61V33.1L206,30.67h-8.69l-2.61,2.62V71.53L197.07,74Z"/><path class="cls-1" d="M278.9,18.23,262.74,57.37l0,29.08H248.92V57.37l-16.2-39.14h14.16L256,40.51l8.64-22.28Z"/><path class="cls-1" d="M314.5,18.32l12.3,68.13H313.45l-2-14.54H301.34l-2.43,14.54H285.66l12.45-68.13ZM303.33,59.56h6.13l-3.09-19.39Z"/><path class="cls-1" d="M350.81,18.23l.05,55.86,26.7,0V86.45H337.08V18.23Z"/></g></g></svg>