<svg xmlns="http://www.w3.org/2000/svg" viewBox="0 0 312.21 128.5"><defs><style>.cls-1{fill:#fff;}.cls-2{fill:#fdb618;}</style></defs><title>logo-white</title><g id="Layer_2" data-name="Layer 2"><g id="Layer_1-2" data-name="Layer 1"><path class="cls-1" d="M28.62,42.41c2.13,0,4.17,0,6.2.09A11.46,11.46,0,0,1,36,40.88,2.67,2.67,0,0,1,37.88,40c1.7,0,5.35,1.61,7.56,3.14,15.89,1.27,27.35,4.84,28.29,11.81.76,5.43-6,13.59-21.15,19.36a80.47,80.47,0,0,1-9.94,2.89c5.43,18.18,18.09,44.25,24.12,44.08-1.44,2.47-11,8.5-14,7C48.84,125.4,38.14,95.41,34.91,79l-6.12,1C23.36,92.52,16,113,16,117.92q0,1.27.51,1.53c-3.65,0-11-5.35-11-7.39,0-4.42,7.13-23,10.44-31-1.1-.77-3.56-3.82-2.37-5,.59-.09,3.82.08,4.33,0,4.67-10.37,9.59-21.24,14-28.8C16.73,47.85,3.57,49.8.17,50.9c-.09,0-.17-.17-.17-.34,0-1.44,2.72-6.28,4-6.71A196.41,196.41,0,0,1,28.62,42.41Zm16.65,4.67C39.75,54.73,36,64,31.17,74.52a42.13,42.13,0,0,0,11.72-2.64c11-4.5,17.59-12.65,16.91-17.92C59.12,49,52.07,47.42,45.27,47.08Z"/><path class="cls-1" d="M72.26,107.05c0,2.25,1.13,3.54,2.58,3.54,5.22,0,19.21-7.24,30.14-21.22.88.08.4,2.17.16,2.73-4.34,9.24-22.35,24.35-30,24.35-6.68,0-13.59-6.19-13.59-11.33,0-12.94,15.19-37.06,27.33-37.06,6.75,0,13.35,5,13.35,11.42,0,5.79-13.35,14.31-21.15,16.07A22.09,22.09,0,0,1,75,96C73.31,100.06,72.26,104,72.26,107.05ZM92.52,73.29c-3.94,0-11.25,9.56-15.84,19a12.32,12.32,0,0,0,4.91-1.13c3.94-1.76,10.69-7.63,12.3-14.55C94.37,74.49,93.81,73.29,92.52,73.29Z"/><path class="cls-1" d="M125.64,108.66a10.19,10.19,0,0,1-.16-2.09,151.81,151.81,0,0,1,2.57-23.39c-7.07,10.53-16.8,31.91-17.44,32.87-3.3,0-9.57-4.26-10.37-6.67a7.62,7.62,0,0,1-.16-1.77c.32-7,6.1-30.14,8.92-36.57.88-1.69,10.77,1.2,10.53,3.45-1.21,1.37-8.52,25.08-9,31.84,4.9-9.49,16.07-28.22,19.29-32.08,1.2-1.76,9.8,1.45,9.88,3.46-1,1.45-3.61,25.72-3.29,30.14,1.85-4.82,18.81-38.26,21.78-40.19,1.13-.88,5.63.56,6.51,1.77-3.37,2.09-11.49,15.68-17.84,27.33-5.31,9.73-9.81,18.49-9.89,19.29C133.51,116.05,126,111,125.64,108.66Z"/><path class="cls-1" d="M188.58,76.1a27.06,27.06,0,0,1,3.29-5.22,2.3,2.3,0,0,1,1.29-.73c2.89-.08,8,3.14,8.2,4.1-1,.57-2.9,4.18-4,6.51A193.34,193.34,0,0,0,189.46,100c-2.33,6.67-4.26,12.54-4.34,15.75a5.23,5.23,0,0,0,.24,1.77c-3.62-.64-9.8-4.74-9.8-6.91s3.29-11.58,4.66-15c-7.24,11-14.23,21-16,21-5.79,0-13.26-5.3-13.26-9.64,0-7.16,6-20.58,12.7-29.5,3.86-5.15,8.28-8.76,11.57-8.76C180.38,68.71,186.41,70.72,188.58,76.1ZM162.37,111c2.82,0,16.8-19.78,23.8-31.67-.81-2.41-2-4.83-4.67-4.83-7.15,0-20.33,25.73-20.09,35.13C161.41,110.34,161.81,111,162.37,111Z"/><path class="cls-1" d="M227.08,88.08c-.32-1.77,1.29-11.25,2.17-15.19a104.14,104.14,0,0,0-20.09,25.64c-2.09,3.78-6.51,12.78-6.51,16.32a4.84,4.84,0,0,0,.16,1.2c-3.62-.64-9.17-4.74-9.17-6.91,0-3.62,9.33-30.06,15.36-38.42a1.53,1.53,0,0,1,1.36-.57c2.9,0,8.12,3.14,8,3.86-1.21.16-5.55,9.17-9.32,18.73,4.34-9.32,17.44-24.84,20.65-24.84,4.43,0,10.21,4.18,10.53,5.95-.32.64-2.81,3.94-5.22,7.32-2.57,3.61-5.15,7.79-5.55,8.2C228.85,89.53,227.16,88.64,227.08,88.08Z"/><path class="cls-1" d="M254,110.75c0-2.09,2.89-11,4.5-15.11-7.23,11-14.23,21-16,21-5.79,0-13.27-5.3-13.27-9.64,0-7.16,6-20.58,12.7-29.5,3.86-5.15,8.28-8.76,11.58-8.76,5.06,0,11,1.93,13.26,7.15,2.33-5.3,5.06-10.93,6.67-14.15s3.78-7.31,5-8.6a2.16,2.16,0,0,1,1.36-.8c2.9-.08,7.72,3,7.88,3.78-1,.56-2.81,4.18-4,6.51-2.81,5.46-12.86,28.21-16.24,38.82-2.57,8.2-4.66,13.67-3.61,16.08C260.12,116.86,254,112.92,254,110.75Zm-13.34.24c2.81,0,16.8-19.78,23.79-31.67-.8-2.41-2-4.83-4.66-4.83-7.16,0-20.34,25.73-20.1,35.13C239.7,110.34,240.1,111,240.67,111Z"/><path class="cls-1" d="M284.15,82.37c0-8,7.72-14.55,15.52-14.71,5.22-.16,11.49,3.46,12.54,8.6-.16,3.3-8,9.25-8.68,9.33s-1-.16-1-.73c.16-1.93.73-6.51.08-9.4s-2.09-4.18-4.42-4.18c-3.05,0-4.18,2.17-4.1,4.82.24,8.28,10.61,24.2,11.09,28.06a7,7,0,0,1,.16,1.36c0,7.64-11.49,11.26-18.16,11.42-8.76.24-18.49-3.38-18.65-10.21-.16-6.19,12.14-15.19,17.44-17.61A18.41,18.41,0,0,1,284.15,82.37ZM285.52,113c2,0,8-1,7.88-4.83-.24-4.58-3.86-11-6.51-16.88-6.27,5-9.57,9.73-9.73,14.15C277,110.18,280.7,113,285.52,113Z"/><path class="cls-2" d="M60.66,13a3.33,3.33,0,0,1,1.25,2.45C61.91,18,58.36,20,54,20c-.35,0-.69,0-1,0a10,10,0,0,1-5.06-1.51,5.58,5.58,0,0,1-1-.92A3.13,3.13,0,0,1,46,15.49c0-2.13,2.48-3.91,5.81-4.38l.33,0L41.83,0,31.51,11.06l.59.09c3.19.52,5.54,2.27,5.54,4.34a3.12,3.12,0,0,1-.83,2.06,5.58,5.58,0,0,1-1.05.92,10,10,0,0,1-5,1.51c-.35,0-.7,0-1.07,0-4.38,0-7.93-2-7.93-4.54A3.28,3.28,0,0,1,23,13.06v0H4.24L17.58,31.11a55,55,0,0,1,48.5,0L81.23,13ZM13.89,17.48c0,2,3.55,9.8,3.55,9.8L8.11,14.82H18.37S13.89,15.11,13.89,17.48ZM36,9.47l5.85-6.2,5.84,6.2L41.83,13Zm6.07,12.44h-.44a51.79,51.79,0,0,0-8.15.92l8.37-6.31,8.37,6.31A51.79,51.79,0,0,0,42.05,21.91Zm23.24-7.09H77.37L68,27.28s5.37-7.76,5.37-9.8C73.41,15.11,65.29,14.82,65.29,14.82ZM16.73,37.27l-.11-3a54.54,54.54,0,0,1,25.21-6.13c9.09,0,19.48,2.21,27,6.13l-5.58,3c-1.08-.55-2.19-1.07-3.32-1.54-6.32-2.68-11.21-4-18.13-4s-15.46,1.35-21.78,4C18.93,36.2,17.82,36.72,16.73,37.27Z"/><path class="cls-1" d="M111.5,13l6.42,6.42,0,18.61-5.74,5.74,8.48,17.66H109.81l-7.49-17.19H98.43l0,17.19H88.64L88.6,13ZM98.43,35.45H106l2.16-2.06V23.86L106.1,21.8H98.43Z"/><path class="cls-1" d="M151.4,13l6.48,6.42V55l-6.48,6.45H135L128.57,55V19.47L135,13ZM146.3,52.6l1.79-1.86V23.53L146.4,21.8h-6.18l-1.86,1.86V50.85l1.72,1.75Z"/><path class="cls-1" d="M198.25,13,186.77,40.78l0,20.67h-9.79V40.78L165.43,13h10.06L182,28.79,188.12,13Z"/><path class="cls-1" d="M223.56,13l8.74,48.43h-9.48L221.4,51.12h-7.2l-1.72,10.33h-9.42L211.91,13Zm-7.94,29.32H220l-2.2-13.78Z"/><path class="cls-1" d="M249.37,13l0,39.71,19,0v8.75H239.61V13Z"/></g></g></svg>