<svg xmlns="http://www.w3.org/2000/svg" viewBox="0 0 107.25 50.72"><defs><style>.cls-1{fill:#fdb618;}</style></defs><title>symbol</title><g id="Layer_2" data-name="Layer 2"><g id="Layer_1-2" data-name="Layer 1"><path class="cls-1" d="M79.25,17.74A4.49,4.49,0,0,1,81,21.07c0,3.41-4.83,6.17-10.8,6.17-.46,0-.93,0-1.38,0a13.65,13.65,0,0,1-6.89-2.05,7.33,7.33,0,0,1-1.43-1.25,4.31,4.31,0,0,1-1.13-2.81c0-2.9,3.37-5.32,7.9-6l.46-.06L53.62,0l-14,15.05.81.13c4.35.7,7.55,3.08,7.55,5.9a4.28,4.28,0,0,1-1.14,2.81,7.33,7.33,0,0,1-1.43,1.25,13.49,13.49,0,0,1-6.79,2c-.47,0-1,.06-1.45.06-6,0-10.8-2.76-10.8-6.17A4.47,4.47,0,0,1,28,17.77v0H0l20.62,24.6a74.67,74.67,0,0,1,66,0l20.62-24.6ZM13.12,23.79c0,2.77,7.31,13.33,7.31,13.33L5.26,20.17H21.69S13.12,20.57,13.12,23.79ZM45.67,12.88l7.95-8.43,8,8.43-8,4.86Zm8.25,16.93h-.59a70.15,70.15,0,0,0-11.1,1.26l11.39-8.59L65,31.07A70.13,70.13,0,0,0,53.92,29.81Zm31.63-9.64H102L86.81,37.12s7.31-10.56,7.31-13.33C94.12,20.57,85.55,20.17,85.55,20.17ZM22,50.72l-2.63-4.1a74.72,74.72,0,0,1,68.61,0l-2.63,4.1q-2.22-1.12-4.52-2.1a70,70,0,0,0-54.31,0C24.93,49.27,23.43,50,22,50.72Z"/></g></g></svg>