<?xml version="1.0" encoding="utf-8"?>
<svg xmlns="http://www.w3.org/2000/svg" viewBox="0 0 119.91 119.91"><defs><style>.cls-1{fill:#0071bc;}</style></defs><title>Asset 25</title><g id="Layer_2" data-name="Layer 2"><g id="Layer_1-2" data-name="Layer 1"><path class="cls-1" d="M117.6,22.91,100.15,40.37a6.65,6.65,0,0,1-9.36,0L79.54,29.12a6.65,6.65,0,0,1,0-9.36L97,2.31A35.52,35.52,0,0,0,50.35,45.67h0a6.28,6.28,0,0,1-2,6.62h.11L1.86,96.58c-2,2-2.47,5-1,6.46l16,16c1.51,1.51,4.42,1.08,6.46-1L68.42,70.61a6.54,6.54,0,0,1,5.41-1.18A35.52,35.52,0,0,0,117.6,22.91ZM22.92,106.66a6.84,6.84,0,1,1,0-9.67A6.82,6.82,0,0,1,22.92,106.66Z"/></g></g></svg>
