<?xml version="1.0" encoding="utf-8"?>
<svg xmlns="http://www.w3.org/2000/svg" viewBox="0 0 127.21 166.63"><defs><style>.cls-1{fill:#ebb548;}</style></defs><title>Asset 2</title><g id="Layer_2" data-name="Layer 2"><g id="Layer_1-2" data-name="Layer 1"><path class="cls-1" d="M91.28,41.44H89.91a8.08,8.08,0,0,0-5.8-7.52V28.77a1.58,1.58,0,0,0-1.57-1.57H77.89V22.72a1.22,1.22,0,0,0-1.21-1.22H71V1.91a1.91,1.91,0,0,0-3.82,0V21.5h-6A1.22,1.22,0,0,0,60,22.72V27.2H55.37a1.58,1.58,0,0,0-1.57,1.57v5.15A8.08,8.08,0,0,0,48,41.44H46.63a.93.93,0,0,0-.93.93v69.79h6.76A4.84,4.84,0,0,1,57.3,117v48.28a5,5,0,0,1-.21,1.35H75.33A5.22,5.22,0,0,1,75,165V85.68a5.14,5.14,0,0,1,5.13-5.13h.74A8.51,8.51,0,0,1,87,78h5.26V42.37A.93.93,0,0,0,91.28,41.44Z"/><path class="cls-1" d="M125.58,84.05h-2.43a5,5,0,0,0-4.35-2.54H87a5,5,0,0,0-4.35,2.54H80.17a1.64,1.64,0,0,0-1.63,1.63V165a1.63,1.63,0,0,0,1.63,1.63h45.41a1.63,1.63,0,0,0,1.63-1.63V85.68A1.64,1.64,0,0,0,125.58,84.05Zm-24.7,14.06A.93.93,0,0,1,100,99H94.69a.93.93,0,0,1-.93-.93v-6.4a.93.93,0,0,1,.93-.93H100a.93.93,0,0,1,.93.93Zm10.73,13.4a.93.93,0,0,1-.93.93h-5.26a.93.93,0,0,1-.93-.93v-6.39a.93.93,0,0,1,.93-.93h5.26a.93.93,0,0,1,.93.93Zm.2-13.4a.93.93,0,0,1-.93.93h-5.26a.93.93,0,0,1-.93-.93v-6.4a.93.93,0,0,1,.93-.93h5.26a.93.93,0,0,1,.93.93Zm10.73,13.4a.93.93,0,0,1-.93.93h-5.26a.93.93,0,0,1-.93-.93v-6.39a.93.93,0,0,1,.93-.93h5.26a.93.93,0,0,1,.93.93Z"/><path class="cls-1" d="M52.46,115.66H1.35A1.35,1.35,0,0,0,0,117v48.28a1.36,1.36,0,0,0,1.35,1.35H52.46a1.35,1.35,0,0,0,1.34-1.35V117A1.34,1.34,0,0,0,52.46,115.66ZM24.77,128.54a.93.93,0,0,1-.93.93H18.59a.93.93,0,0,1-.93-.93v-6.39a.92.92,0,0,1,.93-.93h5.25a.93.93,0,0,1,.93.93Zm10.93,0a.93.93,0,0,1-.93.93H29.52a.93.93,0,0,1-.93-.93v-6.39a.92.92,0,0,1,.93-.93h5.25a.93.93,0,0,1,.93.93Z"/></g></g></svg>
