<?xml version="1.0" encoding="utf-8"?>
<svg xmlns="http://www.w3.org/2000/svg" viewBox="0 0 131.17 131.17"><defs><style>.cls-1{fill:#f15a24;}</style></defs><title>Asset 5</title><g id="Layer_2" data-name="Layer 2"><g id="Layer_1-2" data-name="Layer 1"><path class="cls-1" d="M116.94,83.26a5,5,0,0,0-7,0l-1.6,1.59q-.78-3.18-1.54-6.29l5.88-5.87a5,5,0,0,0,0-7l-2.45-2.45a5,5,0,0,0-7.06,0l-.12.12c-1.61-6.52-2.69-10.87-2.69-10.87,28.17-26.67,35.07-43.78,28.63-50.21s-23.54.46-50.21,28.63L67.86,28.17l.12-.12A5,5,0,0,0,68,21l-2.45-2.45a5,5,0,0,0-7.05,0l-5.87,5.88-6.29-1.54,1.59-1.6a5,5,0,0,0,0-7l-2.45-2.45a5,5,0,0,0-7.05,0L31,19.17c-9.38-2.25-17.39-4.12-20.77-4.79a2.78,2.78,0,0,0-2.71,1L1.27,22.75A2.79,2.79,0,0,0,2,26.9l52.32,31S38.26,76.72,32.14,85.33L6,81.71a2.78,2.78,0,0,0-2.55,1L.61,86.28a2.79,2.79,0,0,0,.73,4.13l23.75,14.43,1.24,1.24,14.43,23.75a2.79,2.79,0,0,0,4.13.73l3.55-2.84a2.78,2.78,0,0,0,1-2.55C48.65,119.31,45.84,99,45.84,99c8.61-6.12,27.39-22.2,27.39-22.2l31,52.32a2.79,2.79,0,0,0,4.15.75l7.38-6.26a2.78,2.78,0,0,0,1-2.71c-.67-3.38-2.54-11.39-4.79-20.77l7.39-7.4a5,5,0,0,0,0-7.05Zm7-75.09a17.12,17.12,0,0,1,3,6.15l-3,.06a13.57,13.57,0,0,0-2.63-3.56Zm-7.11-4a17.12,17.12,0,0,1,6.15,3l-2.65,2.65a13.63,13.63,0,0,0-3.55-2.63Z"/></g></g></svg>
