<?xml version="1.0" encoding="utf-8"?>
<svg xmlns="http://www.w3.org/2000/svg" viewBox="0 0 103.27 119.43"><defs><style>.cls-1{fill:#006837;}</style></defs><title>Asset 26</title><g id="Layer_2" data-name="Layer 2"><g id="Layer_1-2" data-name="Layer 1"><path class="cls-1" d="M103.14,105.53,75.31,71.27a.59.59,0,0,1,.45-1l16.84,0h0a.7.7,0,0,0,.54-1.14l-.37-.47L66.31,36.1a.59.59,0,0,1,.46-1H79.24a.59.59,0,0,0,.46-1L52.09.22a.58.58,0,0,0-.91,0l-27.6,34a.58.58,0,0,0,.45,1H36.51a.59.59,0,0,1,.45,1L10.58,68.56l-.46.57c-.58.72-.44,1.17.25,1.18H27.52a.59.59,0,0,1,.45,1L.13,105.53a.58.58,0,0,0,.46,1H44.87a.58.58,0,0,1,.59.59v11.77a.59.59,0,0,0,.58.59H57.23a.6.6,0,0,0,.59-.59V107.07a.58.58,0,0,1,.58-.59h44.29A.58.58,0,0,0,103.14,105.53Z"/></g></g></svg>
