<?xml version="1.0" encoding="utf-8"?>
<svg xmlns="http://www.w3.org/2000/svg" viewBox="0 0 148.14 161.99"><defs><style>.cls-1{fill:#49226b;}</style></defs><title>Asset 7</title><g id="Layer_2" data-name="Layer 2"><g id="Layer_1-2" data-name="Layer 1"><path class="cls-1" d="M139.71,28.3H104.12a30.1,30.1,0,0,0-60.1,0H8.43L0,162H148.14Zm-93,18.55a7.11,7.11,0,0,1-2.76-13.66v4.75s.29,2.89,2.89,2.89,2.88-2.89,2.88-2.89V33.32a7.1,7.1,0,0,1-3,13.53ZM60.22,28.3H49.51a24.63,24.63,0,0,1,49.12,0H60.22Zm41.26,18.55a7.1,7.1,0,0,1-3.07-13.5v4.59s.28,2.89,2.88,2.89,2.89-2.89,2.89-2.89V33.17a7.11,7.11,0,0,1-2.7,13.68Z"/></g></g></svg>
