<?xml version="1.0" encoding="utf-8"?>
<svg xmlns="http://www.w3.org/2000/svg" viewBox="0 0 117.75 96.45"><defs><style>.cls-1{fill:#ffbc00;}</style></defs><title>Asset 23</title><g id="Layer_2" data-name="Layer 2"><g id="Layer_1-2" data-name="Layer 1"><path class="cls-1" d="M69.67,91.42a48.23,48.23,0,1,0-21.44,5h69.52v-5Zm9.06-12.27a10.3,10.3,0,1,1,0-14.57A10.3,10.3,0,0,1,78.73,79.15Zm-9.8-41.78a10.3,10.3,0,1,1,7.93,12.22A10.29,10.29,0,0,1,68.93,37.37ZM46.61,15.06a10.3,10.3,0,1,1,7.94,12.21A10.31,10.31,0,0,1,46.61,15.06Zm-1,30.53a3.73,3.73,0,1,1,0,5.27A3.72,3.72,0,0,1,45.59,45.59ZM17.26,17.26a10.3,10.3,0,1,1,0,14.57A10.31,10.31,0,0,1,17.26,17.26ZM27.07,59a10.3,10.3,0,1,1-7.94-12.21A10.3,10.3,0,0,1,27.07,59Zm10.1,30.25a10.3,10.3,0,1,1,12.21-7.94A10.3,10.3,0,0,1,37.17,89.28Z"/></g></g></svg>
