<?xml version="1.0" encoding="utf-8"?>
<svg xmlns="http://www.w3.org/2000/svg" viewBox="0 0 127.91 167.1"><defs><style>.cls-1{fill:#a32035;}</style></defs><title>Asset 4</title><g id="Layer_2" data-name="Layer 2"><g id="Layer_1-2" data-name="Layer 1"><path class="cls-1" d="M70.72,10l47.18,47,5.6-5.58-47.18-47Z"/><path class="cls-1" d="M110.93,58.06,69.64,16.77a30.66,30.66,0,0,0-2.22,22,34.94,34.94,0,0,1-.93-3.37L8.23,102.52l4.33,4.31-6.87,6.83,1.64,1.64A26.09,26.09,0,0,0,2,123.54,26.54,26.54,0,0,0,26.62,160a26.57,26.57,0,0,0,18.81-7.76l18.89-18.8a19.77,19.77,0,1,1,28,27.89,3.39,3.39,0,1,0,4.8,4.78,26.48,26.48,0,0,0-8.8-43.28,26.68,26.68,0,0,0-28.83,5.82l-18.89,18.8a19.89,19.89,0,0,1-28,0,19.67,19.67,0,0,1-.48-27.37l1.59,1.58,6.87-6.83,4.33,4.3,67.4-58c-1.12-.24-2.21-.55-3.28-.89A31,31,0,0,0,110.93,58.06ZM68.1,64.92,57.15,75.83a3.84,3.84,0,0,1-5.42,0,3.8,3.8,0,0,1,0-5.4l11-10.91a3.84,3.84,0,0,1,5.42,0A3.8,3.8,0,0,1,68.1,64.92Z"/><path class="cls-1" d="M118.89,9A30.91,30.91,0,0,0,83.36,3.22l41.25,41.26A30.57,30.57,0,0,0,118.89,9Z"/></g></g></svg>
