<?xml version="1.0" encoding="utf-8"?>
<svg xmlns="http://www.w3.org/2000/svg" viewBox="0 0 138.52 138.75"><defs><style>.cls-1{fill:#0071bc;}</style></defs><title>Asset 1</title><g id="Layer_2" data-name="Layer 2"><g id="Layer_1-2" data-name="Layer 1"><path class="cls-1" d="M74.24,94.18c-1.18-.72-1.53-1.17-1.12-2.56q2.46-8.45,4.61-17a4.8,4.8,0,0,1,.3-.84l4.9-18h0C88,37.08,93,18.7,98.12,0,95.57.38,93.22.55,91,1.1c-5.76,1.42-9.44,4.84-11.09,10.81C75.75,26.81,71.21,41.6,67,56.49c-.8,2.83-1.88,4.44-5,5.09C56.47,62.77,51,64.5,45.56,66a46.78,46.78,0,0,0-3-4.2,19.9,19.9,0,0,0-3.82-3.52c-12-7.9-29.06-3.77-36.25,8.71a18.06,18.06,0,0,0,9.25,26.16,27,27,0,0,0,17.49.58c5.75-1.62,10.52-5.09,15.68-7.85,5-2.66,10-5.25,15-7.88l.5.61a30.18,30.18,0,0,1-1.32,3.27c-3.38,6.28-6.73,12.56-10.23,18.77-3.93,7-6.14,14.19-4.53,22.24,2.79,14,17.08,20.3,28.7,12.5,8.21-5.52,11.77-13.61,11.35-23.38C84.07,104.4,80.87,98.22,74.24,94.18ZM34.38,79.35c-4.28,4.83-9.73,6.57-16.05,5.41-3.7-.68-6.71-2.56-7.86-6.28s.46-6.88,3.12-9.53c4.56-4.51,12.22-6,17.79-3.37S38.55,74.65,34.38,79.35ZM72.75,62.4a3.49,3.49,0,1,1-3.49,3.49A3.49,3.49,0,0,1,72.75,62.4ZM67.3,127.1c-4.41,2.93-9.58,1.51-12.08-3.14-3.08-5.71-1.72-13.78,3.14-18.64,4.46-4.45,9.9-4.64,13.32-.13a13.27,13.27,0,0,1,2.5,6.18C75,117.85,72.93,123.36,67.3,127.1Z"/><path class="cls-1" d="M85.7,55l-4.5,17q23.73-6.89,47.43-13.91a11.75,11.75,0,0,0,4-2.11c4.79-4,5.62-9.48,5.87-15.41Z"/></g></g></svg>
