<?xml version="1.0" encoding="utf-8"?>
<svg xmlns="http://www.w3.org/2000/svg" viewBox="0 0 140.54 162.16"><defs><style>.cls-1{fill:#6c9957;}</style></defs><title>Asset 3</title><g id="Layer_2" data-name="Layer 2"><g id="Layer_1-2" data-name="Layer 1"><path class="cls-1" d="M97.37,90.18h0s9.5,7.84,8.71,31.27c-.27,8-.8,17.48-1.38,26.39l-.09-.12-1.15,14.44h18.24l-1.09-14.4-.09.11c-.54-8.91-1-18.34-1.26-26.39-.68-23.44,8.85-31.23,8.85-31.23h0c8.79-7.74,13.57-5.51,12.29-22.1,0-.17,0-.35-.05-.53s0-.32,0-.48L134,2.35c-.15-2.13-.77-1.92-4.25-1.93h-.47a.86.86,0,0,0-.9.8l-.12,54.67a2.54,2.54,0,0,1-2.67,2.38h-.94a2.55,2.55,0,0,1-2.66-2.4l.12-54.66A.85.85,0,0,0,121.2.4h-4.27a.87.87,0,0,0-.9.8l-.12,54.67a2.54,2.54,0,0,1-2.67,2.38h-.94a2.55,2.55,0,0,1-2.66-2.39l.12-54.67a.86.86,0,0,0-.89-.81h-4.26a.85.85,0,0,0-.9.81l-.12,54.66a2.55,2.55,0,0,1-2.68,2.38H100a2.55,2.55,0,0,1-2.66-2.39l.13-54.67a.85.85,0,0,0-.9-.8h-.47c-3.48,0-4.21-.22-4.26,1.91L85.2,67c0,.17,0,.33,0,.49s0,.36,0,.53C83.82,84.6,88.6,82.39,97.37,90.18Z"/><path class="cls-1" d="M16.07,89.6h0s10.46,7.84,9.61,31.27c-.3,8.13-.89,17.67-1.54,26.66l-1.27,14.62H42.76l-1.2-14.58c-.61-9-1.16-18.54-1.42-26.67-.75-23.43,9.74-31.22,9.74-31.22h0c9.69-7.75,16.2-22,16.24-38.23C66.14,26.85,51.85,0,33.6,0S.05,26.71,0,51.3C0,67.57,6.41,81.81,16.07,89.6ZM5.19,41.42s.34-1.48.62-2.46c.66-2.4,2.15-4.82,1.3.83-1.2,8-1,16.66,3.37,27.89C15.31,80.16,20.16,86,28.63,88.88c2.84,1,4.33,1.42,4.33,1.42C17,90.26,4.17,72.82,4.22,51.35A38.16,38.16,0,0,1,5.19,41.42Z"/></g></g></svg>
