<?xml version="1.0" encoding="utf-8"?>
<svg xmlns="http://www.w3.org/2000/svg" viewBox="0 0 115.19 90"><defs><style>.cls-1{fill:#f15a24;}</style></defs><title>Asset 24</title><g id="Layer_2" data-name="Layer 2"><g id="Layer_1-2" data-name="Layer 1"><path class="cls-1" d="M107.5,66.77H8.43a1.15,1.15,0,0,0-1.15,1.15V83.67A6.32,6.32,0,0,0,13.61,90h88.72a6.32,6.32,0,0,0,6.32-6.32V67.92A1.14,1.14,0,0,0,107.5,66.77Z"/><path class="cls-1" d="M8.43,40.35h99.08c.63,0,1.14-.22,1.14-.48v-4.5a.78.78,0,0,0,0-.22h0C108.65,15.74,86,0,58,0S7.28,15.74,7.28,35.15h0a.78.78,0,0,0,0,.22v4.5C7.28,40.13,7.79,40.35,8.43,40.35Z"/><rect class="cls-1" y="45.89" width="115.19" height="15.33" rx="6.92"/></g></g></svg>
