<?xml version="1.0" encoding="utf-8"?>
<svg xmlns="http://www.w3.org/2000/svg" viewBox="0 0 303.85 78.39">
    <title>great-clip-logo</title>
    <g id="Layer_2" data-name="Layer 2">
        <g id="Layer_1-2" data-name="Layer 1">
            <path d="M88.22,13.72c-9.23,0-15.63,5.42-15.63,13.44,0,7.3,5.81,14.07,16.23,14.07a25.94,25.94,0,0,0,13.31-3.12V33.05a25.16,25.16,0,0,1-11.68,3.18c-6.4,0-10.19-2.71-11.24-7.95h23.52C102.73,18.5,97.07,13.72,88.22,13.72ZM79.37,24.8c.89-4.18,3.94-6.54,9-6.54,4.68,0,7.59,2.54,7.81,6.54Zm36.86,49.94h0L108,62.53h-2.07V78h1.92V65.81h0L116.09,78h2V62.53h-1.91Zm11-33.51c2.09,0,3.35-.46,6.4-2V36a8.91,8.91,0,0,1-3.49,1.42c-.82,0-1.27-.36-1.27-1.36V22.45c0-6-5.36-8.73-12.13-8.73-4.84,0-8.48,1.19-11.08,3.6V23a15.27,15.27,0,0,1,10.56-4.35c4,0,6,1.35,6,4.65v1.41l-5.87,1.65C111,27.92,105,29.51,105,34.76c0,3.42,3.27,6.47,8.18,6.47a16.8,16.8,0,0,0,9-2.7C122.78,40.41,124.34,41.23,127.24,41.23Zm-5-5.89a9.51,9.51,0,0,1-5.8,2.18c-2.75,0-4.76-1.53-4.76-3.71,0-3.12,4.91-4.65,10.56-6.18Zm10.37,39.4h0l-8.2-12.21h-2.07V78h1.92V65.81h0L132.49,78h2V62.53h-1.91ZM46.39,66.11c0-1.82,2-2.33,3.46-2.33,2.15,0,3.89,1,4,3.29L56,67c-.44-3.37-3.05-4.82-6.24-4.82-2.67,0-5.54,1.41-5.54,4.41,0,5.73,9.82,2.84,9.82,7.1,0,2.2-1.87,3.09-3.82,3.09-2.68,0-4.44-1.15-4.55-3.95L43.41,73c.26,4,3.18,5.41,6.85,5.41,2.93,0,6-1.52,6-4.8C56.22,67.14,46.39,70.2,46.39,66.11Zm0-28.17v-17h-17V26.1h9.75v8.25a44.33,44.33,0,0,1-11,1.59c-12,0-20.53-6.31-20.53-15.26C7.52,12,16.07,5.3,27.08,5.3a45.72,45.72,0,0,1,18.23,4V3.42C37.35.76,33.18,0,27.23,0,11.75,0,0,9,0,20.85S11.46,41.23,27,41.23A54.64,54.64,0,0,0,46.35,37.94Zm48.09,24.2c-4.82,0-7.78,3.3-7.78,8.12s3,8.13,7.78,8.13,7.78-3.3,7.78-8.13S99.27,62.14,94.44,62.14Zm0,14.6c-3.82,0-5.56-3.07-5.56-6.48s1.74-6.48,5.56-6.48S100,66.85,100,70.26,98.27,76.74,94.44,76.74ZM245,40.06a20.74,20.74,0,0,0,6.69,1.17c9.9,0,17-5.59,17-13.54,0-8.72-6.62-13.43-18.82-13.43H238.32v40H245ZM245,19h6c7.22,0,10.87,3.18,10.87,8.66,0,5.12-4.47,8.89-10.65,8.89A17.57,17.57,0,0,1,245,35.34ZM18.86,78h2V62.53h-2Zm56.93-6.37h5.35c0,3.3-2.26,5-5.5,5-3.83,0-5.57-3.07-5.57-6.48s2.11-6.21,5.57-6.21c2.93,0,4.54,1.36,5.21,3.32l2.05-.54c-1.11-3-4-4.56-7.26-4.56-5,0-7.78,4.14-7.78,8.12,0,4.83,3,8.13,7.78,8.13a6.16,6.16,0,0,0,5.5-2.54h0v2.28H83V69.85H75.79ZM24.14,64.31h4.65V78h2V64.31h4.65V62.53H24.14ZM38.86,65h.91a9.85,9.85,0,0,1-.52,3.37h1a10.19,10.19,0,0,0,.8-3.37V62.53H38.86ZM74.39,16.79c-2.76-2.06-5.29-3.07-8-3.07-3.12,0-6.32,1.95-9.67,6.6H56.6V14.26H50V40.7H56.6V26.86a8.06,8.06,0,0,1,8.11-8.13,12.12,12.12,0,0,1,6.18,2.6ZM262.94,64.31h4.65V78h2V64.31h4.65V62.53H262.94Zm-7.83-1.78L249.2,78h2.19l1.79-4.74h5.87L260.7,78h2.19l-5.61-15.47Zm-1.31,9,2.36-6.41h0l2.21,6.41Zm-110.53-9L137.36,78h2.2l1.78-4.74h5.87L148.86,78h2.19l-5.61-15.47Zm-1.3,9,2.35-6.41h0l2.22,6.41ZM231,3.12c-2.16,0-3.94,1.42-3.94,3.12s1.78,3.13,3.94,3.13S235,8,235,6.24,233.18,3.12,231,3.12Zm68.45,8.71a4.23,4.23,0,0,0-4.42,4.11,4.41,4.41,0,0,0,8.8,0A4.22,4.22,0,0,0,299.47,11.83Zm0,7.57A3.45,3.45,0,1,1,303,15.94,3.43,3.43,0,0,1,299.47,19.4Zm2-4.47c0-.94-.59-1.36-1.78-1.36h-1.9v4.77h.75V16.27h.88l1.32,2.07h.85l-1.43-2.1C300.9,16.15,301.47,15.78,301.47,14.93Zm-2.93.73V14.19h1c.53,0,1.09.1,1.09.69s-.57.78-1.22.78ZM285.63,26c-5.88-2.71-8.11-4.13-8.11-5.3,0-1.42,1.72-2.42,4.39-2.42a22,22,0,0,1,9.68,2.77V15.91a25,25,0,0,0-9.83-2.19c-6.69,0-11,2.72-11,7.19,0,7.13,15.63,9.08,15.63,12.73,0,1.88-2.23,2.88-4.91,3s-6.62-1.12-10.94-3.47v5.65a28,28,0,0,0,11.6,2.41c6.33,0,11-3.12,11-7.77C293.15,30.75,291.14,28.92,285.63,26ZM238.22,70.87h7.67V69.09h-7.67V64.31H247V62.53H236.18V78h11.08V76.22h-9Zm-65.71-1v0a3.36,3.36,0,0,0,2.26-3.26c0-1.85-1.15-4-4.91-4h-7.24V78h7.91c4.13,0,4.69-3,4.69-4.22C175.22,71.87,174.4,70.31,172.51,69.85Zm-7.85-5.54h4.69c1.55,0,3.2,0,3.2,2.32,0,2.05-1.5,2.46-3.18,2.46h-4.71Zm5.5,11.91h-5.5V70.87h4.76c1.76,0,3.59.13,3.59,2.83C173,75.44,171.81,76.19,170.16,76.22ZM213,31.4a39.49,39.49,0,0,1-17.71,4.54c-12.2,0-20.54-6.25-20.54-15.26,0-8.84,8.64-15.38,20.24-15.38a40.14,40.14,0,0,1,17.49,4.18V3.3C205.54,1,200.26,0,195.05,0c-16.15,0-27.83,9-27.83,21.21,0,8.42,8.33,20,27.38,20A45.06,45.06,0,0,0,213,37.7ZM180.64,70.87h7.67V69.09h-7.67V64.31h8.82V62.53H178.59V78h11.09V76.22h-9ZM143,32.52V19h10.57V14.26H143V8.78l-12.42,9.6V19h5.81v14c0,4.77,3.64,8.3,10.85,8.3a24,24,0,0,0,8-1.76V34.58a17.24,17.24,0,0,1-7.51,1.94C145.84,36.52,143,35.64,143,32.52Zm84.66,8.18h6.62V14.26h-6.62ZM209.23,71.63h5.35c0,3.3-2.26,5-5.5,5-3.82,0-5.56-3.07-5.56-6.48s2.11-6.21,5.56-6.21c2.94,0,4.55,1.36,5.22,3.32l2-.54c-1.1-3-4-4.56-7.26-4.56-5,0-7.78,4.14-7.78,8.12,0,4.83,3,8.13,7.78,8.13,2.16,0,4.22-.6,5.5-2.54h0v2.28h1.79V69.85h-7.18ZM232.56,67c0-3.52-2.54-4.45-5-4.45h-7V78h2V71.44h4L230.76,78h2.47L229,71.31A4,4,0,0,0,232.56,67Zm-9.93,2.67V64.31h4.63c1.91,0,3.26.63,3.26,2.67s-1.35,2.67-3.26,2.67Zm1-69.12H217V40.7h6.62Z"/>
        </g>
    </g>
</svg>
